<svg width="162" height="16" viewBox="0 0 162 16" fill="none" xmlns="http://www.w3.org/2000/svg">
<path fill-rule="evenodd" clip-rule="evenodd" d="M34.3797 0L18.1926 7.78182L2.07711 0L0 2.10909L12.5343 16L18.1926 10.2545L23.9226 16L36.4568 2.10909L34.3797 0ZM45.9367 14.567V4.44487H48.6314V5.49757C49.3899 5.07244 50.1084 4.74853 50.7871 4.54609C51.4658 4.34365 52.1244 4.24242 52.7233 4.24242C52.9229 4.24242 53.1424 4.26267 53.362 4.30316C53.4012 4.3111 53.4411 4.31904 53.4818 4.32714C53.6485 4.36031 53.8282 4.39605 54.0207 4.44487V6.93491C53.9346 6.90996 53.8333 6.8927 53.7215 6.87365C53.652 6.86178 53.5783 6.84923 53.5017 6.83369C53.3021 6.7932 53.0826 6.77296 52.863 6.77296C52.1843 6.77296 51.5256 6.89443 50.8869 7.09687C50.2482 7.29931 49.5296 7.64346 48.7312 8.08884V14.567H45.9367ZM63.6056 14.567V12.6438H63.5058C63.1066 13.3928 62.5677 13.9394 61.889 14.2633C61.2104 14.6075 60.3521 14.7695 59.3141 14.7695C58.5556 14.7695 57.877 14.648 57.2382 14.4051C56.5995 14.1621 56.0406 13.818 55.5815 13.3726C55.1224 12.9272 54.7631 12.4009 54.5036 11.7733C54.2442 11.166 54.1244 10.4777 54.1244 9.70838C54.1244 8.89861 54.2242 8.16982 54.4438 7.50175C54.6434 6.83369 54.9827 6.24661 55.4418 5.76075C55.8809 5.27488 56.4598 4.91048 57.1584 4.64731C57.837 4.38413 58.6554 4.24242 59.6135 4.24242C60.2123 4.24242 60.8112 4.3234 61.4299 4.44487C62.0487 4.58658 62.7473 4.78902 63.5058 5.0522V0.598453H66.3003V14.567H63.6056ZM63.5058 9.10105V7.68395C62.9869 7.42078 62.4479 7.19809 61.8691 7.03614C61.2902 6.87418 60.7114 6.77296 60.1125 6.77296C59.0347 6.77296 58.2562 6.99565 57.7572 7.44102C57.2582 7.88639 57.0187 8.5747 57.0187 9.50594C57.0187 9.93107 57.0586 10.3157 57.1783 10.6396C57.2782 10.9838 57.4578 11.2672 57.6973 11.5101C57.9369 11.7531 58.2562 11.9353 58.6554 12.0567C59.0546 12.1782 59.5736 12.2389 60.1724 12.2389C61.2303 12.2389 62.0487 11.9757 62.6276 11.4291C63.2064 10.8825 63.5058 10.1133 63.5058 9.10105ZM78.3733 11.4291V14.0609C77.8144 14.3038 77.1557 14.4658 76.3972 14.5873C75.6387 14.7087 74.8802 14.7695 74.0818 14.7695C73.1037 14.7695 72.2454 14.648 71.4869 14.3848C70.7284 14.1419 70.0897 13.7775 69.5707 13.3119C69.0517 12.8665 68.6525 12.2996 68.393 11.6518C68.1136 11.004 67.9938 10.2955 67.9938 9.50594C67.9938 8.73665 68.1136 8.00786 68.393 7.36004C68.6525 6.71223 69.0517 6.16563 69.5707 5.70001C70.0897 5.25464 70.7284 4.89024 71.4869 4.62707C72.2454 4.38413 73.1037 4.24242 74.0818 4.24242C74.8802 4.24242 75.6387 4.30316 76.3972 4.42462C77.1557 4.54609 77.8144 4.72829 78.3733 4.95097V7.58273C77.6547 7.27907 76.9761 7.07662 76.2974 6.95516C75.6187 6.83369 74.96 6.77296 74.3612 6.77296C73.1436 6.77296 72.2654 7.01589 71.7065 7.50175C71.1476 7.98762 70.8881 8.65568 70.8881 9.50594C70.8881 10.3764 71.1476 11.0445 71.7065 11.5304C72.2654 12.0162 73.1436 12.2389 74.3612 12.2389C74.96 12.2389 75.6187 12.1984 76.2974 12.077C76.9761 11.9555 77.6547 11.7531 78.3733 11.4291ZM82.8566 14.567H80.0621V0.598453H82.8566V14.567ZM84.9431 14.567V4.44487H87.6378V5.49757C88.3963 5.07244 89.1148 4.74853 89.7935 4.54609C90.4722 4.34365 91.1309 4.24242 91.7297 4.24242C91.9293 4.24242 92.1488 4.26267 92.3684 4.30316C92.4076 4.3111 92.4475 4.31905 92.4882 4.32715C92.655 4.36032 92.8346 4.39605 93.0271 4.44487V6.93491C92.941 6.90996 92.8397 6.8927 92.728 6.87365C92.6584 6.86178 92.5847 6.84923 92.5081 6.83369C92.3085 6.7932 92.089 6.77296 91.8694 6.77296C91.1907 6.77296 90.532 6.89443 89.8933 7.09687C89.2546 7.29931 88.536 7.64346 87.7376 8.08884V14.567H84.9431ZM92.3813 14.3443C92.062 14.0609 91.9223 13.6965 91.9223 13.2106C91.9223 12.7653 92.062 12.3806 92.3813 12.0972C92.6808 11.8138 93.0999 11.6721 93.6189 11.6721C94.1379 11.6721 94.5371 11.8138 94.8564 12.0972C95.1559 12.3806 95.3155 12.7653 95.3155 13.2106C95.3155 13.6965 95.1559 14.0609 94.8564 14.3443C94.5371 14.6277 94.1379 14.7695 93.6189 14.7695C93.0999 14.7695 92.6808 14.6277 92.3813 14.3443ZM96.7128 14.0609V11.5304C97.4314 11.8745 98.2098 12.0972 99.0082 12.1984C99.8067 12.2996 100.645 12.3401 101.503 12.3401C102.142 12.3401 102.621 12.2996 102.94 12.1782C103.24 12.077 103.4 11.8948 103.4 11.6113C103.4 11.4899 103.32 11.3887 103.2 11.3077C103.08 11.2267 102.921 11.1457 102.741 11.085C102.541 11.0243 102.342 10.9635 102.122 10.923C101.962 10.8935 101.812 10.8531 101.681 10.8178C101.632 10.8047 101.586 10.7923 101.543 10.7813L99.8466 10.3562C99.2478 10.2145 98.7487 10.0323 98.3495 9.8096C97.9304 9.60716 97.591 9.36423 97.3316 9.10105C97.0721 8.83788 96.8924 8.55446 96.7727 8.23055C96.6529 7.92688 96.613 7.60297 96.613 7.27907C96.613 6.93491 96.6928 6.57052 96.8725 6.20612C97.0521 5.84172 97.3316 5.51781 97.6908 5.23439C98.0501 4.95097 98.5292 4.70804 99.0881 4.52584C99.647 4.34365 100.326 4.24242 101.104 4.24242C102.002 4.24242 102.841 4.30316 103.599 4.42462C104.358 4.54609 105.036 4.72829 105.595 4.95097V7.48151C104.877 7.17785 104.178 6.9754 103.499 6.85394C102.821 6.73247 102.122 6.67174 101.404 6.67174C100.805 6.67174 100.346 6.73247 100.026 6.83369C99.7068 6.95516 99.5472 7.13736 99.5472 7.40053C99.5472 7.522 99.6071 7.62322 99.7268 7.7042C99.8466 7.78517 100.006 7.86615 100.206 7.92688C100.386 7.98762 100.585 8.04835 100.805 8.08884L101.404 8.2103L103.06 8.61519C103.659 8.77714 104.158 8.95934 104.577 9.16178C104.976 9.38447 105.316 9.6274 105.575 9.89058C105.815 10.1538 105.994 10.4372 106.114 10.7611C106.234 11.085 106.294 11.4089 106.294 11.7328C106.294 12.0567 106.214 12.4009 106.054 12.7653C105.895 13.1297 105.615 13.4536 105.256 13.737C104.877 14.0407 104.398 14.2836 103.799 14.486C103.2 14.6885 102.481 14.7695 101.603 14.7695C100.605 14.7695 99.6669 14.729 98.8286 14.6075C97.9703 14.5063 97.2717 14.3241 96.7128 14.0609ZM117.585 11.4291V14.0609C117.026 14.3038 116.367 14.4658 115.609 14.5873C114.85 14.7087 114.092 14.7695 113.293 14.7695C112.315 14.7695 111.457 14.648 110.698 14.3848C109.94 14.1419 109.301 13.7775 108.782 13.3119C108.263 12.8665 107.864 12.2996 107.605 11.6518C107.325 11.004 107.205 10.2955 107.205 9.50594C107.205 8.73665 107.325 8.00786 107.605 7.36004C107.864 6.71223 108.263 6.16563 108.782 5.70001C109.301 5.25464 109.94 4.89024 110.698 4.62707C111.457 4.38413 112.315 4.24242 113.293 4.24242C114.092 4.24242 114.85 4.30316 115.609 4.42462C116.367 4.54609 117.026 4.72829 117.585 4.95097V7.58273C116.866 7.27907 116.188 7.07662 115.509 6.95516C114.83 6.83369 114.172 6.77296 113.573 6.77296C112.355 6.77296 111.477 7.01589 110.918 7.50175C110.359 7.98762 110.1 8.65568 110.1 9.50594C110.1 10.3764 110.359 11.0445 110.918 11.5304C111.477 12.0162 112.355 12.2389 113.573 12.2389C114.172 12.2389 114.83 12.1984 115.509 12.077C116.188 11.9555 116.866 11.7531 117.585 11.4291ZM122.068 14.567H119.274V0.598453H122.068V5.25464C122.567 5.0522 123.006 4.89024 123.405 4.76878C123.785 4.64731 124.144 4.54609 124.463 4.46511C124.783 4.38413 125.062 4.34365 125.342 4.30316C125.621 4.26267 125.9 4.24242 126.2 4.24242C126.839 4.24242 127.417 4.34365 127.936 4.52584C128.455 4.70804 128.915 4.97122 129.294 5.29513C129.653 5.63928 129.952 6.04416 130.152 6.50978C130.352 6.99565 130.451 7.522 130.451 8.08884V14.567H127.657V9.10105C127.657 8.37226 127.457 7.80542 127.058 7.40053C126.659 6.99565 126.1 6.77296 125.382 6.77296C125.022 6.77296 124.563 6.87418 123.984 7.05638C123.385 7.25882 122.747 7.522 122.068 7.88639V14.567ZM132.361 11.6923C132.082 11.0445 131.942 10.3157 131.942 9.50594C131.942 8.69617 132.082 7.96737 132.361 7.31956C132.641 6.67174 133.04 6.12514 133.559 5.65952C134.078 5.21415 134.717 4.84975 135.475 4.60682C136.234 4.36389 137.072 4.24242 138.03 4.24242C138.968 4.24242 139.807 4.36389 140.565 4.60682C141.324 4.84975 141.962 5.21415 142.481 5.65952C143 6.12514 143.42 6.67174 143.699 7.31956C143.978 7.96737 144.118 8.69617 144.118 9.50594C144.118 10.3157 143.978 11.0445 143.699 11.6923C143.42 12.3401 143 12.907 142.481 13.3524C141.962 13.818 141.324 14.1621 140.565 14.4051C139.807 14.648 138.968 14.7695 138.03 14.7695C137.072 14.7695 136.234 14.648 135.475 14.4051C134.717 14.1621 134.078 13.818 133.559 13.3524C133.04 12.907 132.641 12.3401 132.361 11.6923ZM138.03 6.77296C135.894 6.77296 134.837 7.68395 134.837 9.50594C134.837 11.3279 135.894 12.2389 138.03 12.2389C140.146 12.2389 141.224 11.3279 141.224 9.50594C141.224 7.68395 140.146 6.77296 138.03 6.77296ZM145.744 11.6923C145.464 11.0445 145.324 10.3157 145.324 9.50594C145.324 8.69617 145.464 7.96737 145.744 7.31956C146.023 6.67174 146.422 6.12514 146.941 5.65952C147.46 5.21415 148.099 4.84975 148.857 4.60682C149.616 4.36389 150.454 4.24242 151.412 4.24242C152.35 4.24242 153.189 4.36389 153.947 4.60682C154.706 4.84975 155.345 5.21415 155.864 5.65952C156.383 6.12514 156.802 6.67174 157.081 7.31956C157.361 7.96737 157.5 8.69617 157.5 9.50594C157.5 10.3157 157.361 11.0445 157.081 11.6923C156.802 12.3401 156.383 12.907 155.864 13.3524C155.345 13.818 154.706 14.1621 153.947 14.4051C153.189 14.648 152.35 14.7695 151.412 14.7695C150.454 14.7695 149.616 14.648 148.857 14.4051C148.099 14.1621 147.46 13.818 146.941 13.3524C146.422 12.907 146.023 12.3401 145.744 11.6923ZM151.412 6.77296C149.277 6.77296 148.219 7.68395 148.219 9.50594C148.219 11.3279 149.277 12.2389 151.412 12.2389C153.528 12.2389 154.606 11.3279 154.606 9.50594C154.606 7.68395 153.528 6.77296 151.412 6.77296ZM162 14.567H159.206V0.598453H162V14.567Z" fill="white"/>
</svg>
